<?xml version="1.0" encoding="iso-8859-1"?>
<!-- Generator: Adobe Illustrator 19.0.0, SVG Export Plug-In . SVG Version: 6.00 Build 0)  -->
<svg version="1.1" id="Capa_1" xmlns="http://www.w3.org/2000/svg" xmlns:xlink="http://www.w3.org/1999/xlink" x="0px" y="0px"
	 viewBox="0 0 512 512" style="enable-background:new 0 0 512 512;" xml:space="preserve">
<g>
	<g>
		<path d="M412.848,152.469c-4.16-4.16-10.923-4.16-15.083,0L234.65,315.584L71.536,152.469c-4.16-4.16-10.923-4.16-15.083,0
			c-4.16,4.16-4.16,10.923,0,15.083L227.12,338.219c2.091,2.069,4.821,3.115,7.552,3.115s5.461-1.045,7.509-3.115l170.667-170.667
			C417.008,163.392,417.008,156.629,412.848,152.469z"/>
	</g>
</g>
<g>
	<g>
		<path d="M405.338,149.333c-4.352,0-8.085,2.603-9.749,6.336c-11.456,6.507-71.317,14.997-160.917,14.997
			c-70.528,0-122.603-5.269-147.179-10.667c24.576-5.397,76.651-10.667,147.179-10.667c30.571,0,60.48,1.024,86.528,2.965
			c5.675,0.469,10.987-3.968,11.435-9.835c0.427-5.888-3.989-10.987-9.856-11.435c-26.56-1.984-57.024-3.029-88.107-3.029
			c-82.731,0-181.333,5.547-181.333,32s98.603,32,181.333,32s181.333-5.547,181.333-32
			C416.005,154.112,411.226,149.333,405.338,149.333z"/>
	</g>
</g>
<g>
	<g>
		<path d="M235.845,448.064c-0.789-0.085-1.579-0.085-2.368,0c-94.805,10.603-94.805,23.957-94.805,31.936c0,30.464,79.979,32,96,32
			s96-1.536,96-32C330.672,472.021,330.672,458.667,235.845,448.064z M234.672,490.667c-33.579,0-56.875-4.8-68.096-9.088
			c14.421-4.373,43.029-9.323,68.096-12.16c25.067,2.837,53.653,7.787,68.117,12.16C291.568,485.867,268.25,490.667,234.672,490.667
			z"/>
	</g>
</g>
<g>
	<g>
		<path d="M234.672,320c-5.888,0-10.667,4.779-10.667,10.667v128c0,5.888,4.779,10.667,10.667,10.667s10.667-4.779,10.667-10.667
			v-128C245.338,324.779,240.56,320,234.672,320z"/>
	</g>
</g>
<g>
	<g>
		<path d="M405.338,64c-52.928,0-96,43.072-96,96c0,6.933,0.747,13.867,2.219,20.608c1.259,5.739,7.019,9.429,12.693,8.128
			c5.781-1.237,9.429-6.933,8.149-12.693c-1.152-5.248-1.728-10.645-1.728-16.043c0-41.173,33.493-74.667,74.667-74.667
			s74.667,33.493,74.667,74.667s-33.493,74.667-74.667,74.667c-1.579,0-3.157-0.043-4.715-0.128l15.168-72.341
			c1.195-5.76-2.475-11.413-8.256-12.629c-5.653-1.216-11.413,2.475-12.629,8.256l-17.515,83.541
			c-0.597,2.752-0.043,5.653,1.515,8.021c1.536,2.368,3.947,4.011,6.72,4.587c6.464,1.344,13.077,2.027,19.712,2.027
			c52.928,0,96-43.072,96-96S458.266,64,405.338,64z"/>
	</g>
</g>
<g>
	<g>
		<path d="M223.557,7.573C222.192,3.072,218.053,0,213.338,0H64.005c-4.587,0-8.661,2.944-10.133,7.275l-42.667,128
			c-1.429,4.331,0.021,9.088,3.648,11.861c1.92,1.472,4.203,2.197,6.485,2.197c2.069,0,4.117-0.597,5.909-1.792l192-128
			C223.173,16.939,224.922,12.075,223.557,7.573z M41.306,112.533l30.379-91.2h106.432L41.306,112.533z"/>
	</g>
</g>
<g>
	<g>
		<path d="M193.008,173.184l-66.987-94.037c-3.413-4.821-10.069-5.909-14.869-2.496c-4.8,3.413-5.909,10.069-2.496,14.869
			l66.987,94.037c2.069,2.923,5.355,4.48,8.683,4.48c2.133,0,4.309-0.661,6.187-1.984
			C195.29,184.64,196.421,177.984,193.008,173.184z"/>
	</g>
</g>
<g>
</g>
<g>
</g>
<g>
</g>
<g>
</g>
<g>
</g>
<g>
</g>
<g>
</g>
<g>
</g>
<g>
</g>
<g>
</g>
<g>
</g>
<g>
</g>
<g>
</g>
<g>
</g>
<g>
</g>
</svg>
