<?xml version="1.0" encoding="utf-8"?>
<!-- Generator: Adobe Illustrator 16.0.0, SVG Export Plug-In . SVG Version: 6.00 Build 0)  -->
<!DOCTYPE svg PUBLIC "-//W3C//DTD SVG 1.1//EN" "http://www.w3.org/Graphics/SVG/1.1/DTD/svg11.dtd">
<svg version="1.1" id="Calque_1" xmlns="http://www.w3.org/2000/svg" xmlns:xlink="http://www.w3.org/1999/xlink" x="0px" y="0px"
	 width="226.725px" height="291.889px" viewBox="0 0 226.725 291.889" enable-background="new 0 0 226.725 291.889"
	 xml:space="preserve">
<path fill="#2185D0" d="M113.354,0C50.751,0,0,50.743,0,113.371c0,90.773,102.478,174.842,102.478,174.842
	c5.967,4.901,15.778,4.901,21.777,0c0,0,102.47-84.077,102.47-174.842C226.717,50.743,175.998,0,113.354,0z M113.354,170.401
	c-31.457,0-57.029-25.589-57.029-57.038c0-31.448,25.613-57.038,57.029-57.038c31.449,0,57.037,25.59,57.037,57.038
	C170.391,144.821,144.795,170.401,113.354,170.401z"/>
</svg>
